<svg width="29" height="27" viewBox="0 0 29 27" fill="none" xmlns="http://www.w3.org/2000/svg">
<path d="M18.8615 23.4866C18.2842 23.6367 17.7082 23.7709 17.1424 23.8935C12.6165 24.8737 8.04686 25.6354 3.52228 26.6467C3.39913 26.6742 3.26445 26.7007 3.14856 26.6515C3.01773 26.5954 2.95324 26.4619 2.90058 26.3391C0.10268 19.8009 -2.8836 -0.715403 9.93784 0.107021C12.7377 0.286645 14.8607 2.80944 15.2441 5.34958C15.6275 7.88972 14.6794 10.4094 13.6232 12.7633C15.7603 11.6642 18.1088 10.9014 20.5365 10.5184C23.1754 10.1022 25.8775 11.5422 27.2962 13.599C30.7911 18.6638 23.0641 22.3931 18.8615 23.4866Z" fill="white" fill-opacity="0.5"/>
</svg>
