<svg width="25" height="29" viewBox="0 0 25 29" fill="none" xmlns="http://www.w3.org/2000/svg">
<path d="M24.8949 4.57555C24.4637 3.26676 22.6795 2.9814 21.315 3.16534C19.7685 3.37363 18.2789 4.10309 17.0718 4.93226C15.6862 5.88434 14.6161 7.10546 13.6593 8.37586C13.0255 9.21764 12.3974 10.0623 11.7703 10.9078C11.562 7.72003 13.2117 4.12257 10.77 1.47921C8.32269 -1.17018 4.0725 0.0939259 2.03432 2.48917C-0.214797 5.13197 -0.292675 9.13139 0.345822 12.2211C1.10065 15.8736 3.17025 19.2261 6.04315 21.9786C6.4326 22.3519 6.83542 22.7138 7.24994 23.0648C6.64955 23.4155 6.04014 23.7556 5.41635 24.0768C5.19171 24.1925 4.0247 24.7526 4.24701 25.0827C4.46196 25.4019 5.68211 24.8034 5.84826 24.718C6.54392 24.3598 7.22822 23.9862 7.90249 23.6006C10.6734 25.8082 13.9204 27.5616 17.3252 28.965C18.0282 29.2549 20.3265 27.6559 19.8819 27.4725C16.4781 26.0695 13.2077 24.2707 10.4525 22.0397C14.5495 19.3619 18.1455 16.1432 20.9957 12.4395C21.9224 11.2353 22.7634 9.98463 23.5246 8.69819C24.2226 7.51747 25.3499 5.95654 24.8949 4.57555ZM22.128 6.93356C21.8264 8.41024 20.758 9.88292 19.9063 11.1705C17.3085 15.0986 13.8686 18.633 9.76717 21.4678C7.56753 19.5668 5.74063 17.3689 4.50274 14.8522C3.08 11.959 2.46189 8.74862 3.0265 5.63107C3.28257 4.21828 3.71214 2.67024 4.74242 1.51302C4.77719 1.47405 4.81965 1.44225 4.86044 1.41646C4.99382 1.44196 5.29969 1.45171 5.2823 1.4477C5.66607 1.53365 6.02009 1.58322 6.38346 1.72934C7.1754 2.04765 7.82895 2.58572 8.2993 3.21318C10.7306 6.45708 7.94628 10.7015 9.42686 14.213C9.64983 14.7419 11.9304 13.3486 12.1169 13.0976C13.328 11.4696 14.5392 9.84195 15.75 8.21398C16.558 7.1281 17.5077 5.48237 18.8425 4.79445C20.5568 3.91085 22.4345 5.43338 22.128 6.93356Z" fill="white" fill-opacity="0.5"/>
</svg>
