<svg width="25" height="23" viewBox="0 0 25 23" fill="none" xmlns="http://www.w3.org/2000/svg">
<path d="M1.94518 7.14992C1.16917 8.40695 0.482007 10.3794 1.20856 11.8004C1.94171 13.2336 4.01589 13.7952 5.49653 13.9261C7.22766 14.0789 8.89391 13.4579 10.5177 12.9279C11.4489 12.624 12.3718 12.2964 13.289 11.9527C12.9416 13.0852 12.5989 14.2194 12.2966 15.3627C11.9028 16.8524 11.6321 18.4374 12.0063 19.9557C12.4021 21.5625 13.6377 22.349 15.1915 22.6771C16.7117 22.9983 17.9871 22.5553 19.2091 21.6215C24.8136 17.3399 23.7821 9.56292 24.2917 3.24812C24.3273 3.24885 24.3628 3.24957 24.3985 3.25009C24.9698 3.25877 24.9097 2.99217 24.5433 2.71552C24.4844 2.67122 24.4195 2.63035 24.351 2.59229C24.3773 2.33094 24.4059 2.07173 24.4393 1.81655C24.5246 1.16664 21.7064 0.608268 21.6449 1.07708C21.5974 1.43929 21.5574 1.80382 21.5235 2.17026C17.8333 2.07714 14.0518 1.83136 10.3973 2.33488C7.10143 2.78899 3.76189 4.20783 1.94518 7.14992ZM6.53942 5.85589C6.79801 5.64165 7.06574 5.44556 7.33962 5.2625C9.83755 5.25284 12.3326 5.13941 14.8208 4.92758C13.2638 5.5707 11.6576 6.09974 10.0605 6.6525C8.74233 7.10884 7.42751 7.58528 6.16107 8.17453C5.60769 8.43196 4.65218 8.77255 4.06702 9.30354C4.07697 9.27313 4.08693 9.24443 4.09644 9.21786C4.57442 7.88998 5.45742 6.75239 6.53942 5.85589ZM9.43686 11.4847C7.94148 12.012 6.35 12.6688 4.76679 12.8622C3.76305 12.9849 3.65162 11.7578 3.78284 10.6509C4.32783 11.0747 5.73508 11.2031 6.11525 11.1585C8.6829 10.857 11.2176 10.3794 13.7321 9.80441C12.3173 10.4081 10.8872 10.9729 9.43686 11.4847ZM19.5359 16.8704C19.4642 16.8735 19.3932 16.878 19.3238 16.8872C18.3432 17.0167 17.3683 17.0726 16.3941 17.0608C17.2732 16.1263 18.3934 15.4376 19.4455 14.7062C19.8171 14.4477 20.1888 14.1894 20.5603 13.9309C20.3173 14.9364 19.9878 15.9197 19.5359 16.8704ZM16.8727 12.6522C17.4757 12.5972 18.0788 12.542 18.6818 12.487C17.9396 13.0032 17.1975 13.5193 16.4549 14.0355C16.087 14.2912 15.7192 14.5435 15.3596 14.8032C15.5853 14.0398 15.84 13.2823 16.0909 12.5373C16.4706 12.6155 16.7854 12.6602 16.8727 12.6522ZM20.8225 11.0602C20.0744 11.1286 19.3268 11.1969 18.5787 11.2652C19.455 10.5066 20.3309 9.74797 21.2072 8.98935C21.1697 9.67933 21.1193 10.3668 21.0459 11.0487C20.9714 11.0499 20.8967 11.0533 20.8225 11.0602ZM16.3276 10.0144C15.8179 9.78421 14.976 9.64831 14.4518 9.63689C15.5395 9.37993 16.6235 9.10651 17.7053 8.82175C17.246 9.21922 16.7867 9.61668 16.3276 10.0144ZM15.812 21.2212C15.6111 21.3419 15.3832 21.4245 15.168 21.5185C15.1469 21.4842 15.1259 21.4498 15.1046 21.4156C15.0708 21.0528 14.7789 20.6257 14.7103 20.2406C14.6501 19.9029 14.6265 19.5525 14.6217 19.2098C14.6152 18.7493 14.6466 18.2856 14.7017 17.8202C14.879 17.8626 15.0109 17.8901 15.0462 17.8949C16.3148 18.0693 17.5867 18.14 18.8592 18.1147C18.8345 18.1548 18.8119 18.1953 18.7867 18.2354C18.0269 19.437 17.0353 20.4862 15.812 21.2212ZM14.7074 3.1792C16.9469 3.0778 19.1975 3.12785 21.4442 3.18434C21.3741 4.24973 21.3414 5.32805 21.3081 6.4083C21.0058 6.34945 20.7594 6.32464 20.6613 6.35237C16.3851 7.55777 12.0965 8.75165 7.72958 9.54505C8.24723 9.28667 8.79483 9.08874 9.14651 8.93151C10.4227 8.36149 11.7414 7.89574 13.0617 7.44239C15.7014 6.53526 18.3543 5.66403 20.7551 4.20441C21.1245 3.97994 20.1496 3.57747 20.0671 3.54438C19.5282 3.32889 18.8669 3.1502 18.2805 3.23722C15.4244 3.66175 12.5568 3.94381 9.68054 4.08961C11.2769 3.5099 12.9972 3.25649 14.7074 3.1792Z" fill="#F77F00"/>
</svg>
