<svg width="26" height="23" viewBox="0 0 26 23" fill="none" xmlns="http://www.w3.org/2000/svg">
<path d="M14.5686 22.5531C10.4186 23.2712 6.34235 22.498 2.12851 22.9458C2.98906 19.1531 1.73629 16.3897 0.626556 12.867C-0.858711 8.1524 0.665909 -1.54435 7.69498 0.895491C9.56845 1.54625 10.7414 3.42357 11.3931 5.31955C12.0044 7.09751 12.2842 8.99898 12.2137 10.8962C15.0092 7.77658 19.9008 6.84353 23.5119 8.74063C24.1507 9.07637 24.7611 9.50063 25.1799 10.0929C25.5678 10.6412 25.7716 11.3081 25.8637 11.9818C26.2473 14.7908 24.6919 17.672 22.4308 19.4127C20.165 21.1573 17.4143 22.0822 14.5686 22.5531Z" fill="#F77F00"/>
</svg>
