<svg width="23" height="23" viewBox="0 0 23 23" fill="none" xmlns="http://www.w3.org/2000/svg">
<path d="M22.3162 10.267C22.9709 6.75393 18.6772 6.14283 16.1956 6.61494C14.5394 6.93003 12.9769 7.69867 11.5309 8.66635C12.0248 6.64444 11.9848 4.45795 11.0174 2.67155C9.67912 0.19988 6.13791 0.45192 4.1146 1.93091C1.62596 3.74992 0.930547 7.18452 0.907104 10.0842C0.879107 13.5495 1.73805 16.9591 1.52911 20.4316C1.50468 20.8373 4.20423 20.7836 4.24311 20.1376C4.55447 14.9598 2.28755 9.24858 4.73004 4.33756C5.22923 3.33385 5.97582 2.2242 7.01665 1.71584C7.0179 1.71515 7.01865 1.71485 7.02015 1.71427C7.12903 1.76892 7.2379 1.82357 7.34692 1.8786C7.60198 2.04498 7.83251 2.28071 8.01762 2.5204C8.388 3.00017 8.61806 3.59842 8.77406 4.17781C9.46619 6.74858 8.98956 9.53239 7.67743 11.8138C7.42168 12.2583 9.93605 12.0801 10.3164 11.7248C11.4804 10.6364 12.7198 9.6404 14.0516 8.76204C14.9343 8.17987 16.2626 7.13502 17.371 7.25451C18.7576 7.40421 19.7197 8.80072 19.6607 10.1068C19.5995 11.4613 18.6824 12.5513 17.7054 13.4001C15.5233 15.296 12.8991 16.7157 10.3431 18.0403C9.06779 18.7012 7.77892 19.3354 6.49771 19.9841C5.29382 20.5939 4.10529 21.2113 3.30003 22.328C3.04245 22.6851 4.17724 22.6779 4.29834 22.6749C4.71603 22.6649 5.65399 22.6343 5.93898 22.239C7.01374 20.7487 8.95938 20.0601 10.556 19.2586C12.1177 18.4747 13.6785 17.686 15.1972 16.8211C16.8084 15.9033 18.377 14.9013 19.8248 13.7419C20.9602 12.8322 22.039 11.753 22.3162 10.267Z" fill="white"/>
</svg>
