<svg width="25" height="23" viewBox="0 0 25 23" fill="none" xmlns="http://www.w3.org/2000/svg">
<path d="M24.0021 10.267C24.7195 6.75393 20.0142 6.14283 17.2948 6.61494C15.4798 6.93003 13.7675 7.69867 12.183 8.66635C12.7241 6.64444 12.6803 4.45795 11.6202 2.67155C10.1536 0.19988 6.273 0.45192 4.05574 1.93091C1.32855 3.74992 0.566483 7.18452 0.540792 10.0842C0.510111 13.5495 1.45139 16.9591 1.22242 20.4316C1.19565 20.8373 4.15397 20.7836 4.19657 20.1376C4.53778 14.9598 2.05356 9.24858 4.73017 4.33756C5.27722 3.33385 6.09538 2.2242 7.23597 1.71584C7.23733 1.71515 7.23816 1.71485 7.23981 1.71427C7.35912 1.76892 7.47842 1.82357 7.59789 1.8786C7.8774 2.04498 8.13003 2.28071 8.33289 2.5204C8.73877 3.00017 8.99088 3.59842 9.16184 4.17781C9.92031 6.74858 9.39799 9.53239 7.96009 11.8138C7.67982 12.2583 10.4352 12.0801 10.852 11.7248C12.1276 10.6364 13.4858 9.6404 14.9453 8.76204C15.9126 8.17987 17.3681 7.13502 18.5829 7.25451C20.1023 7.40421 21.1567 8.80072 21.092 10.1068C21.0249 11.4613 20.02 12.5513 18.9493 13.4001C16.558 15.296 13.6822 16.7157 10.8813 18.0403C9.48372 18.7012 8.07131 19.3354 6.66728 19.9841C5.348 20.5939 4.04554 21.2113 3.16309 22.328C2.88082 22.6851 4.12438 22.6779 4.25709 22.6749C4.71482 22.6649 5.74269 22.6343 6.055 22.239C7.23278 20.7487 9.36492 20.0601 11.1146 19.2586C12.826 18.4747 14.5363 17.686 16.2006 16.8211C17.9663 15.9033 19.6853 14.9013 21.2719 13.7419C22.5161 12.8322 23.6983 11.753 24.0021 10.267Z" fill="white" fill-opacity="0.5"/>
</svg>
