<svg width="14" height="17" viewBox="0 0 14 17" fill="none" xmlns="http://www.w3.org/2000/svg">
<path d="M0.0168144 5.62856C-0.0456477 4.6463 0.0484351 3.60515 0.598288 2.78789C1.14799 1.97064 2.26015 1.46956 3.16188 1.86933C4.01127 2.24596 4.3876 3.22635 4.6306 4.12129C5.0574 5.69397 5.33326 7.30735 5.45304 8.93223C6.32424 6.94347 7.19886 4.94803 8.32489 3.09102C9.06867 1.86452 10.0003 0.639723 11.3494 0.14564C11.6415 0.0387446 11.9556 -0.0313305 12.2633 0.0140381C13.0739 0.13383 13.5572 0.983091 13.7675 1.77316C14.6114 4.94321 13.0223 8.23306 11.1809 10.9504C9.99408 12.7014 8.68767 14.3935 7.24559 15.9439C6.15508 17.1163 5.45506 17.5307 4.4971 16.0422C2.5452 13.0095 0.249996 9.29549 0.0168144 5.62856Z" fill="white"/>
</svg>
