<svg width="16" height="17" viewBox="0 0 16 17" fill="none" xmlns="http://www.w3.org/2000/svg">
<path d="M0.0192164 5.62856C-0.0521688 4.6463 0.0553544 3.60515 0.683758 2.78789C1.31198 1.97064 2.58303 1.46956 3.61358 1.86933C4.58431 2.24596 5.0144 3.22635 5.29211 4.12129C5.77988 5.69397 6.09515 7.30735 6.23205 8.93223C7.2277 6.94347 8.22727 4.94803 9.51416 3.09102C10.3642 1.86452 11.4289 0.639723 12.9707 0.14564C13.3045 0.0387446 13.6636 -0.0313305 14.0152 0.0140381C14.9416 0.13383 15.494 0.983091 15.7343 1.77316C16.6988 4.94321 14.8827 8.23306 12.7781 10.9504C11.4218 12.7014 9.92877 14.3935 8.28068 15.9439C7.03437 17.1163 6.23436 17.5307 5.13955 16.0422C2.9088 13.0095 0.285709 9.29549 0.0192164 5.62856Z" fill="white" fill-opacity="0.5"/>
</svg>
