<svg width="26" height="27" viewBox="0 0 26 27" fill="none" xmlns="http://www.w3.org/2000/svg">
<path d="M17.3362 23.4866C16.8094 23.6367 16.2838 23.7709 15.7675 23.8935C11.6374 24.8737 7.46755 25.6354 3.33874 26.6467C3.22636 26.6742 3.10346 26.7007 2.99771 26.6515C2.87832 26.5954 2.81947 26.4619 2.77142 26.3391C0.218252 19.8009 -2.50682 -0.715404 9.19313 0.107021C11.7481 0.286645 13.6854 2.80944 14.0352 5.34958C14.3851 7.88972 13.52 10.4094 12.5562 12.7633C14.5062 11.6642 16.6494 10.9014 18.8647 10.5184C21.2728 10.1022 23.7385 11.5422 25.0332 13.599C28.2224 18.6638 21.1712 22.3931 17.3362 23.4866Z" fill="white"/>
</svg>
